<?xml version="1.0" encoding="UTF-8"?>
<svg id="Layer_1" data-name="Layer 1" xmlns="http://www.w3.org/2000/svg" width="1080" height="1080" xmlns:xlink="http://www.w3.org/1999/xlink" viewBox="0 0 1080 1080">
  <defs>
    <style>
      .cls-1, .cls-2 {
        fill: #fff;
      }

      .cls-2 {
        fill-rule: evenodd;
      }

      .cls-3 {
        fill: none;
      }

      .cls-4 {
        fill: url(#linear-gradient);
      }
    </style>
    <linearGradient id="linear-gradient" x1="1002.4" y1="-70.13" x2="101.84" y2="1118.15" gradientUnits="userSpaceOnUse">
      <stop offset="0" stop-color="#57d163"/>
      <stop offset="1" stop-color="#23b33a"/>
    </linearGradient>
  </defs>
  <circle class="cls-4" cx="540" cy="540" r="536.72"/>
  <path class="cls-3" d="M495.86,793.78c2.93.59,5.87,1.14,8.81,1.64-2.94-.5-5.88-1.04-8.81-1.64Z"/>
  <path class="cls-3" d="M522.46,797.82c5.96.6,11.95,1,17.95,1.21-6-.2-11.99-.6-17.95-1.21Z"/>
  <g>
    <path class="cls-1" d="M780.19,304.08c-.66-.68-1.33-1.36-2-2.03-61.04-61.08-142.19-94.72-228.64-94.76-178.17,0-323.15,144.94-323.23,323.09-.06,56.71,14.82,112.42,43.15,161.54l-45.86,167.43,4.56-1.19,166.78-43.74c47.21,25.75,100.36,39.31,154.45,39.34h.14c178.14,0,323.15-144.97,323.23-323.12.03-85.38-32.81-165.73-92.58-226.56ZM549.54,799.18h-.1c-3.01,0-6.02-.05-9.03-.15-6-.21-11.99-.61-17.95-1.21-1.5-.16-2.98-.32-4.47-.49-2.97-.35-5.94-.75-8.89-1.2-1.48-.23-2.96-.46-4.43-.71-2.94-.5-5.88-1.05-8.81-1.64-29.25-5.95-57.38-16.74-83.15-32.04l-9.82-5.81-97.13,25.47,25.92-94.59-6.4-10.16c-26.9-42.81-41.14-92.36-41.07-142.92.06-148.07,120.57-268.54,268.76-268.54,70.08-.17,137.36,27.24,187.36,76.21.07.06.13.12.2.19.05.04.1.09.14.14,49.84,50.18,77.74,118.12,77.51,188.89-.02,74.04-30.16,141.18-78.81,189.81-48.64,48.63-115.79,78.75-189.83,78.75Z"/>
    <path class="cls-2" d="M707.66,645.86c-6.73,18.86-39.7,37.05-54.51,38.4-14.81,1.34-28.69,6.69-96.91-20.21-82.09-32.37-133.93-116.51-137.96-121.91-4.03-5.39-32.98-43.78-32.98-83.52s20.88-59.27,28.27-67.35c7.4-8.08,16.15-10.1,21.54-10.1l15.48.18c5.75.24,12.12.51,18.17,13.96,7.18,15.97,22.87,55.91,24.89,59.95,2.02,4.04,3.36,8.77.67,14.15-2.68,5.38-4.02,8.75-8.06,13.46-4.05,4.71-8.5,10.53-12.12,14.15-4.05,4.02-8.27,8.4-3.55,16.47,4.72,8.08,20.92,34.52,44.93,55.93,30.86,27.51,56.86,36.04,64.94,40.08,8.09,4.03,12.79,3.36,17.51-2.03,4.71-5.39,20.17-23.57,25.56-31.66,5.39-8.08,10.77-6.74,18.17-4.04,7.4,2.69,47.1,22.23,55.19,26.27,8.08,4.04,13.46,6.05,15.48,9.43s2.01,19.53-4.71,38.39Z"/>
  </g>
</svg>